<?xml version="1.0" encoding="UTF-8" standalone="no"?>
<svg
   version="1.1"
   viewBox="0 0 701.97137 146"
   id="svg23"
   sodipodi:docname="logo.svg"
   width="701.97137"
   height="146"
   inkscape:version="1.3.2 (091e20ef0f, 2023-11-25, custom)"
   xmlns:inkscape="http://www.inkscape.org/namespaces/inkscape"
   xmlns:sodipodi="http://sodipodi.sourceforge.net/DTD/sodipodi-0.dtd"
   xmlns:xlink="http://www.w3.org/1999/xlink"
   xmlns="http://www.w3.org/2000/svg"
   xmlns:svg="http://www.w3.org/2000/svg">
  <defs
     id="defs23">
    <linearGradient
       id="linearGradient83"
       inkscape:collect="always">
      <stop
         style="stop-color:#808080;stop-opacity:1;"
         offset="0"
         id="stop83" />
      <stop
         style="stop-color:#6b6b6b;stop-opacity:1;"
         offset="1"
         id="stop84" />
    </linearGradient>
    <linearGradient
       id="linearGradient81"
       inkscape:collect="always">
      <stop
         style="stop-color:#ff0000;stop-opacity:1;"
         offset="0"
         id="stop80" />
      <stop
         style="stop-color:#d60000;stop-opacity:1;"
         offset="1"
         id="stop81" />
    </linearGradient>
    <linearGradient
       id="linearGradient79"
       inkscape:collect="always">
      <stop
         style="stop-color:#ff0000;stop-opacity:1;"
         offset="0"
         id="stop78" />
      <stop
         style="stop-color:#d60000;stop-opacity:1;"
         offset="1"
         id="stop79" />
    </linearGradient>
    <linearGradient
       id="linearGradient70"
       inkscape:collect="always">
      <stop
         style="stop-color:#ff0000;stop-opacity:1;"
         offset="0"
         id="stop69" />
      <stop
         style="stop-color:#d60000;stop-opacity:1;"
         offset="1"
         id="stop70" />
    </linearGradient>
    <linearGradient
       id="linearGradient65"
       inkscape:collect="always">
      <stop
         style="stop-color:#ff0000;stop-opacity:1;"
         offset="0"
         id="stop65" />
      <stop
         style="stop-color:#d60000;stop-opacity:1;"
         offset="1"
         id="stop66" />
    </linearGradient>
    <linearGradient
       inkscape:collect="always"
       xlink:href="#linearGradient79"
       id="linearGradient66"
       x1="569.16833"
       y1="15.266378"
       x2="569.16833"
       y2="127.15495"
       gradientUnits="userSpaceOnUse" />
    <linearGradient
       inkscape:collect="always"
       xlink:href="#linearGradient81"
       id="linearGradient67"
       x1="665.75684"
       y1="17.962521"
       x2="665.75684"
       y2="124.52306"
       gradientUnits="userSpaceOnUse" />
    <linearGradient
       inkscape:collect="always"
       xlink:href="#linearGradient70"
       id="linearGradient69"
       x1="22.421909"
       y1="-156.30884"
       x2="104.5021"
       y2="-160.61047"
       gradientUnits="userSpaceOnUse" />
    <linearGradient
       inkscape:collect="always"
       xlink:href="#linearGradient65"
       id="linearGradient82"
       gradientUnits="userSpaceOnUse"
       x1="487.06482"
       y1="18.030651"
       x2="487.06482"
       y2="125.65352" />
    <linearGradient
       inkscape:collect="always"
       xlink:href="#linearGradient83"
       id="linearGradient84"
       x1="225.16927"
       y1="0.14483395"
       x2="225.16927"
       y2="145.47989"
       gradientUnits="userSpaceOnUse" />
  </defs>
  <sodipodi:namedview
     id="namedview23"
     pagecolor="#ffffff"
     bordercolor="#111111"
     borderopacity="1"
     inkscape:showpageshadow="0"
     inkscape:pageopacity="0"
     inkscape:pagecheckerboard="1"
     inkscape:deskcolor="#d1d1d1"
     inkscape:zoom="1.8454301"
     inkscape:cx="358.72396"
     inkscape:cy="13.546977"
     inkscape:window-width="1920"
     inkscape:window-height="1019"
     inkscape:window-x="1080"
     inkscape:window-y="525"
     inkscape:window-maximized="1"
     inkscape:current-layer="svg23"
     showguides="true" />
  <path
     id="rect1"
     style="fill:url(#linearGradient84)"
     inkscape:label="rect1"
     d="M 0.3203125 0.2265625 L 0.3203125 146.11328 L 449.76367 146.11328 L 449.76367 0.2265625 L 0.3203125 0.2265625 z M 157.13281 15.050781 A 56.22 56.22 0 0 1 213.35156 71.271484 A 56.22 56.22 0 0 1 157.13281 127.49219 A 56.22 56.22 0 0 1 100.91211 71.271484 A 56.22 56.22 0 0 1 157.13281 15.050781 z M 214.97266 17.662109 L 228.27148 17.810547 A 1.51 1.51 0 0 1 229.71289 18.921875 L 248.45117 85.992188 A 0.27 0.27 0 0 0 248.96289 86.041016 C 249.97622 83.987688 250.94443 81.748924 251.87109 79.322266 C 259.19775 60.108989 267.19159 39.84452 275.85156 18.53125 C 276.01823 18.117917 276.32482 17.900859 276.77148 17.880859 L 280.0625 17.730469 C 280.89583 17.690469 281.46482 18.058701 281.77148 18.832031 L 307.8418 85.501953 C 308.22846 86.495283 308.5649 86.477836 308.85156 85.451172 L 327.85156 18.652344 A 1.05 1.05 0 0 1 328.86133 17.890625 L 342.69141 17.822266 A 0.6 0.59 8 0 1 343.27148 18.582031 L 312.91211 124.10156 A 0.82 0.82 0 0 1 312.12109 124.69141 L 308.14258 124.70117 C 307.72258 124.70117 307.43458 124.50466 307.28125 124.11133 C 299.10794 103.31139 290.96487 82.543818 282.85156 61.810547 C 281.74156 58.960556 280.37117 56.271085 279.45117 53.371094 C 279.39117 53.171094 279.36133 52.968385 279.36133 52.761719 C 279.37466 52.481719 279.24289 52.300703 278.96289 52.220703 A 0.74 0.74 0 0 0 278.04297 52.761719 C 277.7963 53.815049 277.48466 54.808855 277.11133 55.742188 C 267.93136 78.475453 258.79138 101.24728 249.69141 124.06055 C 249.52474 124.48055 249.21815 124.69141 248.77148 124.69141 L 245.0918 124.7207 C 244.5718 124.7207 244.24156 124.4738 244.10156 123.98047 L 214.17188 18.720703 A 0.83 0.83 0 0 1 214.97266 17.662109 z M 9.421875 17.761719 C 10.588537 17.781719 11.785056 17.794115 13.011719 17.800781 C 13.978381 17.807448 14.957843 18.381492 15.951172 19.521484 C 31.897775 37.914745 47.951392 56.46838 64.111328 75.181641 C 68.861308 80.681618 73.25182 86.442133 78.091797 91.662109 A 0.6 0.6 0 0 0 79.111328 91.412109 C 79.304661 90.67878 79.399245 89.938072 79.392578 89.191406 C 79.045912 63.924842 78.879245 40.374261 78.892578 18.541016 A 0.55 0.56 0.5 0 1 79.441406 17.992188 L 93.042969 17.871094 A 0.82 0.82 0 0 1 93.861328 18.691406 L 93.742188 124.0918 C 93.742188 124.36513 93.608463 124.5287 93.341797 124.58203 C 90.328476 125.2487 87.941633 124.56765 86.181641 122.54102 C 69.695038 103.52107 52.531334 83.815129 34.691406 63.421875 C 29.711426 57.735232 26.338925 53.964654 24.572266 52.111328 C 24.318933 51.844662 24.191406 51.895052 24.191406 52.261719 L 24.132812 124.07227 A 0.6 0.6 0 0 1 23.53125 124.67188 L 9.7421875 124.69141 C 9.2088562 124.69141 8.9414062 124.42396 8.9414062 123.89062 L 8.8710938 18.300781 A 0.54 0.54 0 0 1 9.421875 17.761719 z M 393.69141 17.791016 A 0.3 0.3 0 0 1 393.97266 17.970703 L 443.52148 124.26172 A 0.3 0.3 0 0 1 443.25195 124.69141 L 427.73242 124.62109 A 0.3 0.3 0 0 1 427.46289 124.45117 L 411.60156 91.242188 A 0.3 0.3 0 0 0 411.33203 91.072266 L 370.64258 91.111328 A 0.3 0.3 0 0 0 370.37109 91.28125 L 354.62109 124.54102 A 0.3 0.3 0 0 1 354.35156 124.71094 L 338.51172 124.70117 A 0.3 0.3 0 0 1 338.24219 124.27148 L 388.37109 18.072266 A 0.3 0.3 0 0 1 388.64258 17.902344 L 393.69141 17.791016 z M 159.26367 29.917969 A 41.05 41.48 3 0 0 116.09766 69.193359 A 41.05 41.48 3 0 0 154.92188 112.76367 A 41.05 41.48 3 0 0 198.08594 73.490234 A 41.05 41.48 3 0 0 159.26367 29.917969 z M 391.20703 48.322266 A 0.34 0.34 0 0 0 390.90234 48.511719 L 377.46289 76.03125 A 0.34 0.34 0 0 0 377.77148 76.521484 L 404.54297 76.572266 A 0.34 0.34 0 0 0 404.85156 76.082031 L 391.51172 48.511719 A 0.34 0.34 0 0 0 391.20703 48.322266 z " />
  <path
     fill="#d31820"
     d="m 562.49203,127.10143 c -17.56,-1.5 -32.51,-11.73 -41.65,-26.81 -13.06,-21.559998 -9.7,-50.139998 7.79,-68.159998 12.31,-12.68 29.72,-18.64 47.49,-16.43 23.09,2.87 42.87,21.85 46.96,44.7 4.64,25.920001 -6.91,50.009998 -30.32,61.769998 -9.32,4.68 -19.88,5.81 -30.27,4.93 z m 7.1586,-23.3697 a 32.34,31.27 88 0 0 30.1224,-33.411598 32.34,31.27 88 0 0 -32.3796,-31.229 32.34,31.27 88 0 0 -30.1224,33.4116 32.34,31.27 88 0 0 32.3796,31.228998 z"
     id="path16"
     style="fill-opacity:1;fill:url(#linearGradient66)" />
  <path
     fill="#d31820"
     d="m 499.64203,42.211432 -0.1,82.209998 a 0.39,0.39 0 0 1 -0.39,0.39 h -23.85 a 0.39,0.39 0 0 1 -0.39,-0.39 V 42.241432 a 0.39,0.39 0 0 0 -0.39,-0.39 l -17.29,0.01 a 0.39,0.39 0 0 1 -0.39,-0.39 l -0.03,-23.24 a 0.39,0.39 0 0 1 0.39,-0.39 l 60.57,0.02 a 0.39,0.39 0 0 1 0.39,0.39 l 0.01,23.28 a 0.39,0.39 0 0 1 -0.39,0.39 l -17.75,-0.1 a 0.39,0.39 0 0 0 -0.39,0.39 z"
     id="path20"
     style="fill-opacity:1;fill:url(#linearGradient82)" />
  <path
     fill="#d31820"
     d="m 654.75203,86.231433 q -0.21,0.79 -0.21,1.56 0.17,18.689997 0.12,36.549997 a 0.47,0.47 0 0 1 -0.47,0.47 h -23.54 a 0.51,0.51 0 0 1 -0.51,-0.51 l 0.03,-105.939998 q 0,-0.57 0.57,-0.57 10.19,0.16 20,0.11 c 10.44,-0.04 19.63,-0.15 28.01,3.31 17.31,7.17 21.9,32.38 11.9,46.77 q -4.46,6.41 -12.36,9.91 a 0.87,0.88 64.1 0 0 -0.42,1.210001 l 24.05,45.079997 a 0.43,0.43 0 0 1 -0.38,0.63 h -25.64 a 0.92,0.93 76.2 0 1 -0.82,-0.49 l -20.23,-38.099997 q -0.07,-0.13 -0.1,0.01 z m -0.13,-44.070001 v 15.06 a 0.37,0.37 0 0 0 0.37,0.37 h 8.18 a 8.73,6.93 0 0 0 8.73,-6.93 v -1.94 a 8.73,6.93 0 0 0 -8.73,-6.93 h -8.18 a 0.37,0.37 0 0 0 -0.37,0.37 z"
     id="path21"
     style="fill-opacity:1;fill:url(#linearGradient67)" />
  <ellipse
     fill="#d31820"
     cx="63.022102"
     cy="-160.61047"
     transform="rotate(93)"
     rx="41.48"
     ry="41.049999"
     id="ellipse21"
     style="fill-opacity:1;fill:url(#linearGradient69)" />
  <path
     fill="#7c7d81"
     d="m 377.46203,76.031432 13.44,-27.52 a 0.34,0.34 0 0 1 0.61,0 l 13.34,27.57 a 0.34,0.34 0 0 1 -0.31,0.49 l -26.77,-0.05 a 0.34,0.34 0 0 1 -0.31,-0.49 z"
     id="path23" />
</svg>
